#!OML:ASF F:\VICON\USERDATA\INSTALL\rory3\rory3.ASF
:FULLY-SPECIFIED
:DEGREES
4341
root 12.7357 17.9933 -4.54967 182.315 182.359 -534.272
lowerback 11.4381 4.14577 -1.68516
upperback 2.5839 5.20709 -1.94406
thorax -3.65434 2.58787 -1.82564
lowerneck -14.3012 6.62724 -8.52417
upperneck 46.961 12.6713 4.07513
head 19.9135 4.07821 6.0582
rclavicle 4.07509e-015 -1.31198e-014
rhumerus -33.0928 -13.5306 -75.6103
rradius 37.8371
rwrist 4.39413
rhand -14.0891 7.01772
rfingers 7.12502
rthumb 12.0432 -22.6158
lclavicle 4.07509e-015 -1.31198e-014
lhumerus -42.1554 13.4665 78.9347
lradius 33.501
lwrist -5.7628
lhand -17.4924 24.917
lfingers 7.12502
lthumb 8.7602 54.7152
rfemur -27.8079 -5.54584 16.1986
rtibia 33.4252
rfoot -5.00564 -7.75384
rtoes -3.56107
lfemur 7.47111 -5.96183 -22.2241
ltibia 16.2103
lfoot -4.81744 -11.0194
ltoes -19.1462
4342
root 12.7917 17.9764 -4.67464 182.424 182.328 -533.636
lowerback 11.4231 4.16963 -2.49451
upperback 2.62194 5.13806 -2.08864
thorax -3.6643 2.55931 -1.51553
lowerneck -14.3298 6.66431 -8.46462
upperneck 46.8563 12.7848 3.88652
head 19.8724 4.11312 5.96735
rclavicle 1.18674e-013 -4.85035e-014
rhumerus -32.852 -13.6608 -75.616
rradius 38.0131
rwrist 4.41475
rhand -14.2018 6.56335
rfingers 7.12502
rthumb 11.9345 -23.0765
lclavicle 1.18674e-013 -4.85035e-014
lhumerus -41.7618 13.3758 79.0488
lradius 33.8806
lwrist -5.46737
lhand -17.6483 24.8222
lfingers 7.12502
lthumb 8.60974 54.6266
rfemur -28.6709 -5.59152 15.2705
rtibia 33.9329
rfoot -4.94894 -7.61284
rtoes -4.68794
lfemur 7.59748 -5.50486 -23.0484
ltibia 14.9468
lfoot -5.14208 -10.7533
ltoes -18.2305
4343
root 12.8455 17.9616 -4.79731 182.491 182.238 -533.167
lowerback 11.4484 4.19483 -3.06056
upperback 2.66104 5.0991 -2.21132
thorax -3.67467 2.54374 -1.32481
lowerneck -14.3732 6.65519 -8.48939
upperneck 46.7793 12.8003 3.83131
head 19.8366 4.11246 5.94261
rclavicle 1.29608e-013 -5.52621e-014
rhumerus -32.7526 -14.0721 -75.5571
rradius 38.2838
rwrist 4.52927
rhand -13.9887 6.35773
rfingers 7.12502
rthumb 12.14 -23.27
lclavicle 1.29608e-013 -5.52621e-014
lhumerus -41.4269 13.1697 79.1696
lradius 34.3726
lwrist -5.17326
lhand -17.6673 24.5315
lfingers 7.12502
lthumb 8.59142 54.3367
rfemur -29.3965 -5.51036 14.4917
rtibia 34.4004
rfoot -5.08027 -7.62633
rtoes -5.92736
lfemur 7.80303 -5.18845 -23.6547
ltibia 13.5746
lfoot -5.32229 -10.6803
ltoes -15.2842
4344
root 12.9003 17.9475 -4.91768 182.608 182.08 -532.916
lowerback 11.449 4.1936 -3.34128
upperback 2.65105 5.05985 -2.31071
thorax -3.70003 2.52637 -1.26786
lowerneck -14.4047 6.62804 -8.54649
upperneck 46.7924 12.7531 3.90245
head 19.8433 4.09261 5.98227
rclavicle -3.81667e-014 2.46493e-014
rhumerus -32.7448 -14.7183 -75.4592
rradius 38.4245
rwrist 4.85923
rhand -13.8492 6.50894
rfingers 7.12502
rthumb 12.2745 -23.1108
lclavicle -3.81667e-014 2.46493e-014
lhumerus -41.0981 12.9897 79.1979
lradius 34.7505
lwrist -5.13379
lhand -17.5256 24.5683
lfingers 7.12502
lthumb 8.7282 54.3678
rfemur -30.0556 -5.49144 13.9667
rtibia 34.7481
rfoot -5.4061 -7.73334
rtoes -8.34696
lfemur 7.92327 -5.06341 -24.0102
ltibia 12.2684
lfoot -5.37005 -10.6172
ltoes -11.4895
4345
root 12.9569 17.9339 -5.03247 182.699 181.926 -532.777
lowerback 11.5424 4.16425 -3.46176
upperback 2.58258 4.99581 -2.38933
thorax -3.82553 2.49614 -1.28439
lowerneck -14.4021 6.63477 -8.61193
upperneck 46.9057 12.7764 3.97366
head 19.9023 4.09074 6.043
rclavicle -9.24349e-015 7.55382e-015
rhumerus -32.7743 -15.1473 -75.409
rradius 38.4125
rwrist 5.06958
rhand -13.7926 6.55365
rfingers 7.12502
rthumb 12.3291 -23.0628
lclavicle -9.24349e-015 7.55382e-015
lhumerus -40.8343 12.6744 79.2308
lradius 35.1074
lwrist -4.92926
lhand -17.5591 24.5086
lfingers 7.12502
lthumb 8.69578 54.3095
rfemur -30.5627 -5.41973 13.5356
rtibia 34.9539
rfoot -6.18937 -8.05819
rtoes -8.53902
lfemur 7.97076 -5.00536 -24.2638
ltibia 11.2323
lfoot -5.55533 -10.6747
ltoes -10.2666
4346
root 13.0129 17.9225 -5.14381 182.733 181.744 -532.769
lowerback 11.6982 4.11842 -3.40121
upperback 2.48875 4.92804 -2.44683
thorax -3.99874 2.46282 -1.38433
lowerneck -14.214 6.67479 -8.55146
upperneck 46.9832 12.8203 3.95087
head 19.9061 4.11574 6.02186
rclavicle 6.29153e-014 -5.1684e-014
rhumerus -32.9444 -15.4548 -75.4266
rradius 38.5322
rwrist 5.09533
rhand -13.8509 6.44803
rfingers 7.12502
rthumb 12.2728 -23.1718
lclavicle 6.29153e-014 -5.1684e-014
lhumerus -40.7898 12.1137 79.28
lradius 35.7411
lwrist -4.44721
lhand -17.9257 24.3521
lfingers 7.12502
lthumb 8.34207 54.1673
rfemur -30.8989 -5.28512 13.2238
rtibia 35.0712
rfoot -7.6902 -8.54601
rtoes -3.4825
lfemur 7.99507 -4.84161 -24.3483
ltibia 10.4364
lfoot -5.98637 -10.9514
ltoes -11.2118
4347
root 13.064 17.9187 -5.2556 182.743 181.536 -532.925
lowerback 11.7432 4.03962 -3.28285
upperback 2.5286 4.83957 -2.39281
thorax -3.97634 2.41783 -1.38132
lowerneck -14.205 6.70533 -8.45672
upperneck 46.9659 12.9199 3.76754
head 19.9203 4.14499 5.93309
rclavicle -5.74488e-014 5.56597e-015
rhumerus -32.8981 -15.6461 -75.504
rradius 38.7279
rwrist 4.96517
rhand -13.9259 6.63567
rfingers 7.12502
rthumb 12.2005 -22.9885
lclavicle -5.74488e-014 5.56597e-015
lhumerus -40.5258 11.8079 79.3375
lradius 36.2544
lwrist -4.06718
lhand -18.2242 24.3133
lfingers 7.12502
lthumb 8.05394 54.1399
rfemur -31.12 -5.13117 13.0992
rtibia 35.166
rfoot -7.94089 -8.31419
rtoes -8.92264
lfemur 7.94479 -4.70172 -24.2405
ltibia 9.85589
lfoot -6.46061 -11.0953
ltoes -12.1117
4348
root 13.1096 17.9207 -5.36643 182.728 181.345 -533.222
lowerback 11.8517 3.95637 -3.13712
upperback 2.56906 4.74882 -2.25256
thorax -3.99354 2.37152 -1.30832
lowerneck -14.3993 6.71015 -8.44151
upperneck 47.0789 13.0496 3.60525
head 20.0744 4.1533 5.90518
rclavicle -2.04748e-014 1.39149e-014
rhumerus -32.7905 -15.7422 -75.5603
rradius 38.8355
rwrist 4.89314
rhand -13.9629 6.77196
rfingers 7.12502
rthumb 12.1649 -22.8543
lclavicle -2.04748e-014 1.39149e-014
lhumerus -40.1565 11.753 79.3183
lradius 36.556
lwrist -4.05187
lhand -17.9854 24.4203
lfingers 7.12502
lthumb 8.28446 54.2379
rfemur -31.2395 -4.82368 13.1312
rtibia 35.2678
rfoot -8.02981 -7.83197
rtoes -14.1899
lfemur 7.6712 -4.54082 -23.9613
ltibia 9.68314
lfoot -6.7749 -11.2472
ltoes -11.6629
4349
root 13.1549 17.9194 -5.47496 182.751 181.168 -533.513
lowerback 12.0517 3.88737 -2.92336
upperback 2.47236 4.67486 -2.16528
thorax -4.19495 2.33343 -1.34406
lowerneck -14.4033 6.73404 -8.50462
upperneck 47.2091 13.1423 3.59738
head 20.1551 4.1647 5.94169
rclavicle -2.88238e-015 1.23246e-014
rhumerus -32.9302 -15.758 -75.6217
rradius 38.9489
rwrist 4.78069
rhand -14.0852 6.59485
rfingers 7.12502
rthumb 12.047 -23.0384
lclavicle -2.88238e-015 1.23246e-014
lhumerus -40.0469 11.5944 79.1932
lradius 37.0636
lwrist -4.26413
lhand -17.3377 24.5347
lfingers 7.12502
lthumb 8.90947 54.3266
rfemur -31.3766 -4.56499 13.2094
rtibia 35.3711
rfoot -8.31514 -7.24714
rtoes -15.8326
lfemur 7.1438 -4.3683 -23.6935
ltibia 9.90916
lfoot -7.10874 -11.4617
ltoes -10.81
4350
root 13.1994 17.9151 -5.58166 182.781 180.991 -533.682
lowerback 12.2062 3.87071 -2.74294
upperback 2.41889 4.66727 -2.15547
thorax -4.32243 2.32778 -1.44669
lowerneck -14.438 6.71984 -8.57523
upperneck 47.2825 13.1447 3.65172
head 20.2026 4.15383 5.99127
rclavicle -6.95746e-014 1.19271e-014
rhumerus -33.1339 -15.8595 -75.694
rradius 39.2055
rwrist 4.62153
rhand -13.9059 6.44301
rfingers 7.12502
rthumb 12.2198 -23.18
lclavicle -6.95746e-014 1.19271e-014
lhumerus -39.8651 11.1295 79.1754
lradius 37.6833
lwrist -4.15723
lhand -17.0182 24.5867
lfingers 7.12502
lthumb 9.21776 54.3653
rfemur -31.5987 -4.47185 13.2282
rtibia 35.6149
rfoot -8.92757 -6.62596
rtoes -14.4375
lfemur 6.66469 -4.19487 -23.6
ltibia 10.0783
lfoot -7.47536 -11.5507
ltoes -10.5974
4351
root 13.2421 17.9002 -5.68261 182.737 180.881 -533.738
lowerback 12.3161 3.90568 -2.71756
upperback 2.44052 4.71208 -2.15901
thorax -4.35769 2.34934 -1.4788
lowerneck -14.5216 6.69566 -8.61785
upperneck 47.3749 13.1582 3.65526
head 20.2894 4.14033 6.02124
rclavicle -1.03368e-014 -3.18055e-015
rhumerus -33.2844 -15.9722 -75.8087
rradius 39.4674
rwrist 4.49791
rhand -13.7543 6.46723
rfingers 7.12502
rthumb 12.366 -23.147
lclavicle -1.03368e-014 -3.18055e-015
lhumerus -39.5801 10.7151 79.185
lradius 38.2363
lwrist -3.88969
lhand -17.3263 25.0149
lfingers 7.12502
lthumb 8.92052 54.8063
rfemur -31.8479 -4.41407 13.1699
rtibia 35.964
rfoot -9.48317 -6.04568
rtoes -13.0094
lfemur 6.26995 -4.16055 -23.6932
ltibia 10.3399
lfoot -7.91284 -11.3122
ltoes -11.0172
4352
root 13.2828 17.9003 -5.77551 182.617 180.904 -533.748
lowerback 12.3355 3.95403 -2.77045
upperback 2.48647 4.76886 -2.17411
thorax -4.3229 2.37772 -1.47358
lowerneck -14.3949 6.73867 -8.52773
upperneck 47.3948 13.2467 3.52914
head 20.2874 4.17565 5.95215
rclavicle 1.31198e-014 -6.36111e-015
rhumerus -33.3167 -15.8884 -76.0144
rradius 39.4876
rwrist 4.47732
rhand -13.8776 6.70246
rfingers 7.12502
rthumb 12.2471 -22.9189
lclavicle 1.31198e-014 -6.36111e-015
lhumerus -39.3964 10.4972 79.072
lradius 38.8365
lwrist -3.71197
lhand -17.5821 25.1734
lfingers 7.12502
lthumb 8.67364 54.9752
rfemur -31.8948 -4.20519 12.9964
rtibia 36.5299
rfoot -10.1368 -5.0825
rtoes -9.76687
lfemur 5.9283 -4.12781 -23.8579
ltibia 10.7032
lfoot -8.16408 -11.0643
ltoes -10.0377
4353
root 13.3204 17.899 -5.87014 182.513 180.876 -533.802
lowerback 12.3739 3.97481 -2.75194
upperback 2.52896 4.79648 -2.21042
thorax -4.2946 2.39088 -1.52684
lowerneck -14.31 6.77972 -8.32854
upperneck 47.3384 13.3249 3.3198
head 20.2688 4.21798 5.81967
rclavicle 5.76476e-015 -3.29983e-014
rhumerus -33.3252 -15.7288 -76.3078
rradius 39.4339
rwrist 4.43152
rhand -13.9497 7.27488
rfingers 7.12502
rthumb 12.1776 -22.3507
lclavicle 5.76476e-015 -3.29983e-014
lhumerus -39.2184 10.2044 78.8895
lradius 39.4559
lwrist -3.47303
lhand -17.6942 24.9076
lfingers 7.12502
lthumb 8.5654 54.7138
rfemur -31.9914 -4.04776 12.9523
rtibia 37.2592
rfoot -10.3813 -4.43729
rtoes -10.4919
lfemur 5.5518 -4.13561 -23.9474
ltibia 11.0686
lfoot -8.38563 -10.8728
ltoes -8.55348
